<svg width="273" height="24" viewBox="0 0 273 24" fill="none" xmlns="http://www.w3.org/2000/svg">
<path d="M0.00176299 11.9488C0.00176299 4.90792 5.69912 0.101149 14.2791 0.101149C17.1951 0.11162 20.0789 0.710353 22.7573 1.86138L21.4686 5.41567C19.2767 4.40438 16.897 3.86243 14.4825 3.8247C8.68345 3.8247 5.69912 6.87125 5.69912 11.9488C5.57661 12.9541 5.66366 13.9737 5.9548 14.9438C6.24593 15.9139 6.73487 16.8134 7.39091 17.5858C8.04695 18.3583 8.85591 18.987 9.76699 19.4324C10.6781 19.8779 11.6716 20.1306 12.6852 20.1745C14.3313 20.2261 15.9433 19.6983 17.239 18.6834C18.5347 17.6686 19.4316 16.2313 19.7729 14.623H13.3295V10.7979H25.0634V23.4241H21.2651V17.7034C20.5736 19.613 19.2817 21.2481 17.5826 22.3646C15.8834 23.481 13.868 24.019 11.8373 23.898C10.269 23.9073 8.71464 23.6035 7.2656 23.0046C5.81656 22.4057 4.50208 21.5237 3.39942 20.4104C2.29676 19.2972 1.42816 17.9751 0.844683 16.522C0.261205 15.0689 -0.0253831 13.5141 0.00176299 11.9488Z" fill="black"/>
<path d="M73.0839 13.7095C72.6712 16.9522 72.8435 20.2424 73.5926 23.4246H68.1665C67.6056 20.778 67.4003 18.0688 67.5561 15.3681H35.4745V23.4246H30.7267V0.507782H62.6048C69.5908 0.507782 73.3891 2.97887 73.3891 7.88719C73.4287 9.16087 73.0581 10.4137 72.3317 11.4616C71.6053 12.5095 70.5615 13.2974 69.3535 13.7095H73.0839ZM35.4745 4.12978V11.6784H62.13C66.2674 11.6784 68.3361 10.5952 68.3361 7.81948C68.3361 5.04374 66.437 4.06208 62.2657 4.06208L35.4745 4.12978Z" fill="black"/>
<path d="M78.238 11.9492C78.238 4.77292 83.9015 0 92.0745 0C100.247 0 105.945 4.90832 105.945 11.9492C105.945 18.9901 100.214 23.8984 92.0745 23.8984C83.9354 23.8984 78.238 19.1255 78.238 11.9492ZM100.824 11.9492C100.845 10.8253 100.626 9.70984 100.182 8.67693C99.7372 7.64403 99.0777 6.71735 98.2469 5.9585C97.4161 5.19964 96.433 4.62599 95.3629 4.27566C94.2928 3.92534 93.1603 3.80637 92.0406 3.92666C90.9389 3.85526 89.8343 4.01022 88.795 4.38193C87.7557 4.75365 86.8039 5.33423 85.9984 6.08776C85.1929 6.84129 84.5508 7.75176 84.1118 8.76286C83.6729 9.77396 83.4464 10.8642 83.4464 11.9661C83.4464 13.0681 83.6729 14.1583 84.1118 15.1694C84.5508 16.1805 85.1929 17.091 85.9984 17.8445C86.8039 18.5981 87.7557 19.1786 88.795 19.5504C89.8343 19.9221 90.9389 20.077 92.0406 20.0056C93.1632 20.1263 94.2986 20.0065 95.3711 19.6542C96.4437 19.3019 97.4285 18.7252 98.2599 17.9626C99.0913 17.2001 99.75 16.2692 100.192 15.2322C100.634 14.1952 100.85 13.0759 100.824 11.9492Z" fill="black"/>
<path d="M113.711 0.507782L120.494 17.9408L127.277 0.507782H131.991L138.773 17.7377L140.944 10.9676H145.827L142.029 23.4923H135.653L129.752 6.93938L123.75 23.4246H117.272L108.523 0.507782H113.711Z" fill="black"/>
<path d="M144.301 0.507782H174.246L172.414 4.46829H160.443V23.4246H155.56V4.46829H143.012L144.301 0.507782Z" fill="black"/>
<path d="M186.115 0.507782L196.696 23.4246H191.372L189.201 18.4485H176.993L174.653 23.4923H169.362L179.943 0.507782H186.115ZM187.777 14.7588L183.131 3.62203L178.383 14.7588H187.777Z" fill="black"/>
<path d="M202.089 18.0762C204.741 19.4133 207.664 20.1309 210.635 20.1749C214.433 20.1749 216.468 19.024 216.468 17.433C216.468 13.1001 201.309 14.0479 201.309 6.33004C201.309 2.50494 205.107 0 211.211 0C214.521 0.00433966 217.796 0.671977 220.843 1.96333L219.486 5.68688C216.891 4.53397 214.086 3.92342 211.245 3.8928C207.854 3.8928 206.498 4.73907 206.498 6.26234C206.498 10.7983 221.589 10.2905 221.589 17.6361C221.589 21.3597 217.587 24 210.703 24C207.273 24.0029 203.883 23.2638 200.766 21.8336L202.089 18.0762Z" fill="black"/>
<path d="M232.101 0.507782V10.1552H255.331L265.709 0.507782H272.05L260.961 10.6629L273 23.323H266.862L257.739 13.6756H232.135V23.3569H227.218V0.507782H232.101Z" fill="black"/>
<path d="M92.0751 14.725C93.7233 14.725 95.0594 13.3914 95.0594 11.7462C95.0594 10.101 93.7233 8.76735 92.0751 8.76735C90.4269 8.76735 89.0908 10.101 89.0908 11.7462C89.0908 13.3914 90.4269 14.725 92.0751 14.725Z" fill="black"/>
</svg>
